<svg id="Layer_4" data-name="Layer 4" xmlns="http://www.w3.org/2000/svg" viewBox="0 0 372.47 372.47">
    <defs>
        <style>.cls-1{fill:#fff;}</style>
    </defs>
    <g id="Layer_3" data-name="Layer 3">
        <path class="cls-1"
            d="M186.23,34A152.28,152.28,0,1,0,338.51,186.23,152.27,152.27,0,0,0,186.23,34ZM126.08,206.45a20.22,20.22,0,1,1,20.21-20.22A20.22,20.22,0,0,1,126.08,206.45Zm60.15,0a20.22,20.22,0,1,1,20.22-20.22A20.22,20.22,0,0,1,186.23,206.45Zm60.16,0a20.22,20.22,0,1,1,20.22-20.22A20.22,20.22,0,0,1,246.39,206.45Z" />
    </g>
</svg>