<svg id="Layer_4" data-name="Layer 4" xmlns="http://www.w3.org/2000/svg" viewBox="0 0 240 240">
    <defs>
        <style>.cls-1{fill:#fff;}</style>
    </defs>
    <g id="Layer_3" data-name="Layer 3">
        <path class="cls-1"
            d="M197.48,196.66c1-.9,1.9-1.82,2.84-2.75A113.59,113.59,0,1,0,39.68,33.27a113.59,113.59,0,0,0,0,160.64,112.71,112.71,0,0,0,66.67,32.46l83.85,12.69c18.8,3.22,18-1.45,13.16-19.9ZM94.8,122.06a8.47,8.47,0,1,1,8.47-8.47A8.47,8.47,0,0,1,94.8,122.06Zm25.2,0a8.47,8.47,0,1,1,8.47-8.47A8.47,8.47,0,0,1,120,122.06Zm25.2,0a8.47,8.47,0,1,1,8.46-8.47A8.47,8.47,0,0,1,145.2,122.06Z" />
    </g>
</svg>